<mxfile host="Electron" modified="2024-02-08T21:57:08.556Z" agent="Mozilla/5.0 (Windows NT 10.0; Win64; x64) AppleWebKit/537.36 (KHTML, like Gecko) draw.io/21.3.7 Chrome/112.0.5615.204 Electron/24.5.0 Safari/537.36" etag="TSafMZQlu0V7loPZZLrm" version="21.3.7" type="device">
  <diagram name="Seite-1" id="Fn-hEBT-p9Im9N3VQAg3">
    <mxGraphModel dx="1134" dy="1730" grid="1" gridSize="10" guides="1" tooltips="1" connect="1" arrows="1" fold="1" page="1" pageScale="1" pageWidth="827" pageHeight="1169" math="0" shadow="0">
      <root>
        <mxCell id="0" />
        <mxCell id="1" parent="0" />
        <mxCell id="x9OSoC4hzTUqRZIwS2UU-1" value="&lt;b&gt;&lt;font style=&quot;font-size: 14px;&quot;&gt;actual Set&lt;/font&gt;&lt;br&gt;&lt;/b&gt;created as Array of Coins with length = amountOfCoins" style="rounded=0;whiteSpace=wrap;html=1;" parent="1" vertex="1">
          <mxGeometry x="320" y="160" width="180" height="90" as="geometry" />
        </mxCell>
        <mxCell id="x9OSoC4hzTUqRZIwS2UU-6" value="&lt;font style=&quot;font-size: 14px;&quot;&gt;&lt;b&gt;check &lt;/b&gt;&lt;/font&gt;&lt;br&gt;if actualCount%3 ==&amp;nbsp; 0&lt;br&gt;return rest = 0" style="rounded=0;whiteSpace=wrap;html=1;" parent="1" vertex="1">
          <mxGeometry x="215" y="340" width="130" height="60" as="geometry" />
        </mxCell>
        <mxCell id="h35wLK1LhefXW1c5MuRA-1" value="PAP for Coins Algorithm" style="rounded=0;whiteSpace=wrap;html=1;" vertex="1" parent="1">
          <mxGeometry x="249.98000000000002" y="-320" width="320" height="80" as="geometry" />
        </mxCell>
        <mxCell id="h35wLK1LhefXW1c5MuRA-2" value="" style="endArrow=classic;html=1;rounded=0;exitX=0.5;exitY=1;exitDx=0;exitDy=0;" edge="1" parent="1" source="h35wLK1LhefXW1c5MuRA-5">
          <mxGeometry width="50" height="50" relative="1" as="geometry">
            <mxPoint x="670" y="400" as="sourcePoint" />
            <mxPoint x="410" y="320" as="targetPoint" />
          </mxGeometry>
        </mxCell>
        <mxCell id="h35wLK1LhefXW1c5MuRA-3" value="&lt;font style=&quot;font-size: 14px;&quot;&gt;&lt;b&gt;check &lt;/b&gt;&lt;/font&gt;&lt;br&gt;if actualCount%3 ==&amp;nbsp; 1&lt;br&gt;return rest 1" style="rounded=0;whiteSpace=wrap;html=1;" vertex="1" parent="1">
          <mxGeometry x="345" y="340" width="130" height="60" as="geometry" />
        </mxCell>
        <mxCell id="h35wLK1LhefXW1c5MuRA-4" value="&lt;font style=&quot;font-size: 14px;&quot;&gt;&lt;b&gt;check &lt;/b&gt;&lt;/font&gt;&lt;br&gt;if actualCount%3 ==&amp;nbsp; 2&lt;br&gt;return rest = 2" style="rounded=0;whiteSpace=wrap;html=1;" vertex="1" parent="1">
          <mxGeometry x="475" y="340" width="130" height="60" as="geometry" />
        </mxCell>
        <mxCell id="h35wLK1LhefXW1c5MuRA-6" value="" style="endArrow=classic;html=1;rounded=0;" edge="1" parent="1" source="x9OSoC4hzTUqRZIwS2UU-1" target="h35wLK1LhefXW1c5MuRA-5">
          <mxGeometry width="50" height="50" relative="1" as="geometry">
            <mxPoint x="410" y="250" as="sourcePoint" />
            <mxPoint x="410" y="320" as="targetPoint" />
          </mxGeometry>
        </mxCell>
        <mxCell id="h35wLK1LhefXW1c5MuRA-5" value="&lt;b style=&quot;border-color: var(--border-color); font-size: 14px;&quot;&gt;makeDivisble&lt;/b&gt;" style="rounded=0;whiteSpace=wrap;html=1;" vertex="1" parent="1">
          <mxGeometry x="215" y="310" width="390" height="30" as="geometry" />
        </mxCell>
        <mxCell id="h35wLK1LhefXW1c5MuRA-8" value="&lt;div&gt;actualCount =&amp;nbsp;&lt;/div&gt;&lt;div&gt;(actualCount - rest)*1/3 + rest&lt;/div&gt;&lt;div&gt;&lt;span style=&quot;white-space: pre;&quot;&gt;&amp;nbsp;&amp;nbsp;&amp;nbsp;&amp;nbsp;&lt;/span&gt;&lt;span style=&quot;white-space: pre;&quot;&gt;&amp;nbsp;&amp;nbsp;&amp;nbsp;&amp;nbsp;&lt;/span&gt;return actualCount&lt;/div&gt;" style="rounded=0;whiteSpace=wrap;html=1;" vertex="1" parent="1">
          <mxGeometry x="310.63" y="480" width="200" height="60" as="geometry" />
        </mxCell>
        <mxCell id="h35wLK1LhefXW1c5MuRA-12" value="&lt;b style=&quot;border-color: var(--border-color); font-size: 14px;&quot;&gt;cutIntoThirds (int rest)&lt;/b&gt;" style="rounded=0;whiteSpace=wrap;html=1;" vertex="1" parent="1">
          <mxGeometry x="310.63" y="460" width="200" height="20" as="geometry" />
        </mxCell>
        <mxCell id="h35wLK1LhefXW1c5MuRA-13" value="" style="endArrow=classic;html=1;rounded=0;" edge="1" parent="1" source="h35wLK1LhefXW1c5MuRA-3" target="h35wLK1LhefXW1c5MuRA-12">
          <mxGeometry width="50" height="50" relative="1" as="geometry">
            <mxPoint x="410" y="410" as="sourcePoint" />
            <mxPoint x="410" y="460" as="targetPoint" />
          </mxGeometry>
        </mxCell>
        <mxCell id="h35wLK1LhefXW1c5MuRA-14" value="&lt;font style=&quot;font-size: 14px;&quot;&gt;&lt;b&gt;slicing (int rest)&lt;/b&gt;&lt;/font&gt;" style="rounded=0;whiteSpace=wrap;html=1;" vertex="1" parent="1">
          <mxGeometry x="341.25" y="590" width="138.75" height="40" as="geometry" />
        </mxCell>
        <mxCell id="h35wLK1LhefXW1c5MuRA-15" value="" style="endArrow=classic;html=1;rounded=0;" edge="1" parent="1" source="h35wLK1LhefXW1c5MuRA-8" target="h35wLK1LhefXW1c5MuRA-14">
          <mxGeometry width="50" height="50" relative="1" as="geometry">
            <mxPoint x="409.66" y="530" as="sourcePoint" />
            <mxPoint x="409.66" y="590" as="targetPoint" />
          </mxGeometry>
        </mxCell>
        <mxCell id="h35wLK1LhefXW1c5MuRA-16" value="- rest" style="rounded=0;whiteSpace=wrap;html=1;" vertex="1" parent="1">
          <mxGeometry x="341.26" y="630" width="138.74" height="20" as="geometry" />
        </mxCell>
        <mxCell id="h35wLK1LhefXW1c5MuRA-17" value="slice1&amp;nbsp;&lt;br&gt;&lt;div style=&quot;border-color: var(--border-color);&quot;&gt;actualCount =&amp;nbsp;&lt;/div&gt;&lt;div style=&quot;border-color: var(--border-color);&quot;&gt;(actualCount - rest)*1/3 + rest&lt;/div&gt;&lt;div style=&quot;border-color: var(--border-color);&quot;&gt;&amp;nbsp;&amp;nbsp;&amp;nbsp;&amp;nbsp;&lt;span style=&quot;border-color: var(--border-color);&quot;&gt;&amp;nbsp;&amp;nbsp;&amp;nbsp;&amp;nbsp;&lt;/span&gt;return actualCount&lt;/div&gt;" style="rounded=0;whiteSpace=wrap;html=1;" vertex="1" parent="1">
          <mxGeometry x="310.31" y="650" width="199.38" height="60" as="geometry" />
        </mxCell>
        <mxCell id="h35wLK1LhefXW1c5MuRA-18" value="&lt;b&gt;&lt;font style=&quot;font-size: 14px;&quot;&gt;setting actualAmount&lt;/font&gt;&lt;/b&gt;" style="rounded=0;whiteSpace=wrap;html=1;" vertex="1" parent="1">
          <mxGeometry x="349.99" y="-70" width="120" height="60" as="geometry" />
        </mxCell>
        <mxCell id="h35wLK1LhefXW1c5MuRA-19" value="" style="endArrow=classic;html=1;rounded=0;" edge="1" parent="1" source="h35wLK1LhefXW1c5MuRA-55" target="x9OSoC4hzTUqRZIwS2UU-1">
          <mxGeometry width="50" height="50" relative="1" as="geometry">
            <mxPoint x="409.66" y="100" as="sourcePoint" />
            <mxPoint x="409.66" y="160" as="targetPoint" />
          </mxGeometry>
        </mxCell>
        <mxCell id="h35wLK1LhefXW1c5MuRA-20" value="" style="endArrow=classic;html=1;rounded=0;" edge="1" parent="1" source="h35wLK1LhefXW1c5MuRA-26" target="h35wLK1LhefXW1c5MuRA-21">
          <mxGeometry width="50" height="50" relative="1" as="geometry">
            <mxPoint x="409.65" y="770" as="sourcePoint" />
            <mxPoint x="409.65" y="820" as="targetPoint" />
            <Array as="points">
              <mxPoint x="409.65" y="800" />
            </Array>
          </mxGeometry>
        </mxCell>
        <mxCell id="h35wLK1LhefXW1c5MuRA-21" value="&lt;font style=&quot;font-size: 14px;&quot;&gt;&lt;b&gt;creating 3 new arrays&lt;/b&gt;&lt;/font&gt;" style="rounded=0;whiteSpace=wrap;html=1;" vertex="1" parent="1">
          <mxGeometry x="340.61" y="820" width="138.75" height="50" as="geometry" />
        </mxCell>
        <mxCell id="h35wLK1LhefXW1c5MuRA-22" value="all three with the length of the value of slice1" style="rounded=0;whiteSpace=wrap;html=1;" vertex="1" parent="1">
          <mxGeometry x="315.32" y="870" width="189.36" height="50" as="geometry" />
        </mxCell>
        <mxCell id="h35wLK1LhefXW1c5MuRA-24" value="creating 19681 Coins &lt;br&gt;attributs: weight = 1; &lt;br&gt;nr ascending&lt;span style=&quot;background-color: initial;&quot;&gt;;&lt;/span&gt;&lt;br&gt;a coinAlgorithm.Coin at random with weight = 2;&amp;nbsp;" style="rounded=0;whiteSpace=wrap;html=1;" vertex="1" parent="1">
          <mxGeometry x="310.31" y="-190" width="199.99" height="70" as="geometry" />
        </mxCell>
        <mxCell id="h35wLK1LhefXW1c5MuRA-25" value="" style="endArrow=classic;html=1;rounded=0;" edge="1" parent="1" source="h35wLK1LhefXW1c5MuRA-24" target="h35wLK1LhefXW1c5MuRA-18">
          <mxGeometry width="50" height="50" relative="1" as="geometry">
            <mxPoint x="410.29" y="-20" as="sourcePoint" />
            <mxPoint x="410" y="-60" as="targetPoint" />
          </mxGeometry>
        </mxCell>
        <mxCell id="h35wLK1LhefXW1c5MuRA-26" value="slice2&amp;nbsp;&lt;br&gt;&lt;div style=&quot;border-color: var(--border-color);&quot;&gt;actualCount =&amp;nbsp;&lt;/div&gt;&lt;div style=&quot;border-color: var(--border-color);&quot;&gt;(actualCount - rest)*2/3 + rest&lt;/div&gt;&lt;div style=&quot;border-color: var(--border-color);&quot;&gt;&amp;nbsp;&amp;nbsp;&amp;nbsp;&amp;nbsp;&lt;span style=&quot;border-color: var(--border-color);&quot;&gt;&amp;nbsp;&amp;nbsp;&amp;nbsp;&amp;nbsp;&lt;/span&gt;return actualCount&lt;/div&gt;" style="rounded=0;whiteSpace=wrap;html=1;" vertex="1" parent="1">
          <mxGeometry x="310.3" y="710" width="199.38" height="60" as="geometry" />
        </mxCell>
        <mxCell id="h35wLK1LhefXW1c5MuRA-31" value="" style="edgeStyle=orthogonalEdgeStyle;rounded=0;orthogonalLoop=1;jettySize=auto;html=1;" edge="1" parent="1" source="h35wLK1LhefXW1c5MuRA-28" target="h35wLK1LhefXW1c5MuRA-30">
          <mxGeometry relative="1" as="geometry" />
        </mxCell>
        <mxCell id="h35wLK1LhefXW1c5MuRA-28" value="filling them with the thirds" style="rounded=0;whiteSpace=wrap;html=1;" vertex="1" parent="1">
          <mxGeometry x="315.31" y="920" width="189.36" height="50" as="geometry" />
        </mxCell>
        <mxCell id="h35wLK1LhefXW1c5MuRA-29" value="" style="endArrow=classic;html=1;rounded=0;" edge="1" parent="1" source="h35wLK1LhefXW1c5MuRA-28" target="h35wLK1LhefXW1c5MuRA-30">
          <mxGeometry width="50" height="50" relative="1" as="geometry">
            <mxPoint x="410.64" y="970" as="sourcePoint" />
            <mxPoint x="410.64" y="1020" as="targetPoint" />
            <Array as="points">
              <mxPoint x="410.28999999999996" y="1000" />
            </Array>
          </mxGeometry>
        </mxCell>
        <mxCell id="h35wLK1LhefXW1c5MuRA-30" value="&lt;font style=&quot;font-size: 14px;&quot;&gt;&lt;b&gt;weigh two arrays&lt;/b&gt;&lt;/font&gt;" style="rounded=0;whiteSpace=wrap;html=1;" vertex="1" parent="1">
          <mxGeometry x="340.61" y="1020" width="138.75" height="40" as="geometry" />
        </mxCell>
        <mxCell id="h35wLK1LhefXW1c5MuRA-32" value="" style="endArrow=classic;html=1;rounded=0;" edge="1" parent="1" source="h35wLK1LhefXW1c5MuRA-30" target="h35wLK1LhefXW1c5MuRA-33">
          <mxGeometry width="50" height="50" relative="1" as="geometry">
            <mxPoint x="409.64" y="1070" as="sourcePoint" />
            <mxPoint x="409.64" y="1120" as="targetPoint" />
            <Array as="points">
              <mxPoint x="409.92999999999995" y="1100" />
            </Array>
          </mxGeometry>
        </mxCell>
        <mxCell id="h35wLK1LhefXW1c5MuRA-37" style="edgeStyle=orthogonalEdgeStyle;rounded=0;orthogonalLoop=1;jettySize=auto;html=1;entryX=1;entryY=0.5;entryDx=0;entryDy=0;" edge="1" parent="1" source="h35wLK1LhefXW1c5MuRA-33" target="h35wLK1LhefXW1c5MuRA-18">
          <mxGeometry relative="1" as="geometry">
            <Array as="points">
              <mxPoint x="650" y="1126" />
              <mxPoint x="650" y="-40" />
            </Array>
          </mxGeometry>
        </mxCell>
        <mxCell id="h35wLK1LhefXW1c5MuRA-38" value="thirdThird = new actualAmount" style="edgeLabel;html=1;align=center;verticalAlign=middle;resizable=0;points=[];" vertex="1" connectable="0" parent="h35wLK1LhefXW1c5MuRA-37">
          <mxGeometry x="0.026" y="1" relative="1" as="geometry">
            <mxPoint as="offset" />
          </mxGeometry>
        </mxCell>
        <mxCell id="h35wLK1LhefXW1c5MuRA-33" value="&lt;font style=&quot;font-size: 14px;&quot;&gt;&lt;b&gt;if&amp;nbsp;&lt;/b&gt;&lt;/font&gt;" style="rounded=0;whiteSpace=wrap;html=1;" vertex="1" parent="1">
          <mxGeometry x="340.61" y="1110" width="138.75" height="31" as="geometry" />
        </mxCell>
        <mxCell id="h35wLK1LhefXW1c5MuRA-34" value="&lt;font style=&quot;font-size: 12px;&quot;&gt;firstThird == secondThird&lt;/font&gt;" style="rounded=0;whiteSpace=wrap;html=1;" vertex="1" parent="1">
          <mxGeometry x="330.29" y="1141" width="159.39" height="29" as="geometry" />
        </mxCell>
        <mxCell id="h35wLK1LhefXW1c5MuRA-44" style="edgeStyle=orthogonalEdgeStyle;rounded=0;orthogonalLoop=1;jettySize=auto;html=1;entryX=1;entryY=0.5;entryDx=0;entryDy=0;" edge="1" parent="1" source="h35wLK1LhefXW1c5MuRA-39" target="h35wLK1LhefXW1c5MuRA-18">
          <mxGeometry relative="1" as="geometry">
            <Array as="points">
              <mxPoint x="730" y="1236" />
              <mxPoint x="730" y="-40" />
            </Array>
          </mxGeometry>
        </mxCell>
        <mxCell id="h35wLK1LhefXW1c5MuRA-45" value="secondThird = new actualAmount" style="edgeLabel;html=1;align=center;verticalAlign=middle;resizable=0;points=[];" vertex="1" connectable="0" parent="h35wLK1LhefXW1c5MuRA-44">
          <mxGeometry x="0.0207" relative="1" as="geometry">
            <mxPoint as="offset" />
          </mxGeometry>
        </mxCell>
        <mxCell id="h35wLK1LhefXW1c5MuRA-39" value="&lt;font style=&quot;font-size: 14px;&quot;&gt;&lt;b&gt;else if&amp;nbsp;&lt;/b&gt;&lt;/font&gt;" style="rounded=0;whiteSpace=wrap;html=1;" vertex="1" parent="1">
          <mxGeometry x="340.61" y="1220" width="138.75" height="31" as="geometry" />
        </mxCell>
        <mxCell id="h35wLK1LhefXW1c5MuRA-42" value="" style="endArrow=classic;html=1;rounded=0;" edge="1" parent="1" source="h35wLK1LhefXW1c5MuRA-34" target="h35wLK1LhefXW1c5MuRA-39">
          <mxGeometry width="50" height="50" relative="1" as="geometry">
            <mxPoint x="409.64" y="1172" as="sourcePoint" />
            <mxPoint x="409.64" y="1222" as="targetPoint" />
            <Array as="points">
              <mxPoint x="409.92999999999995" y="1202" />
            </Array>
          </mxGeometry>
        </mxCell>
        <mxCell id="h35wLK1LhefXW1c5MuRA-43" value="&lt;font style=&quot;font-size: 12px;&quot;&gt;firstThird - secondThird = -1&lt;/font&gt;" style="rounded=0;whiteSpace=wrap;html=1;" vertex="1" parent="1">
          <mxGeometry x="320.94" y="1251" width="179.39" height="29" as="geometry" />
        </mxCell>
        <mxCell id="h35wLK1LhefXW1c5MuRA-52" style="edgeStyle=orthogonalEdgeStyle;rounded=0;orthogonalLoop=1;jettySize=auto;html=1;entryX=1;entryY=0.5;entryDx=0;entryDy=0;" edge="1" parent="1" source="h35wLK1LhefXW1c5MuRA-46" target="h35wLK1LhefXW1c5MuRA-18">
          <mxGeometry relative="1" as="geometry">
            <Array as="points">
              <mxPoint x="810" y="1346" />
              <mxPoint x="810" y="-40" />
            </Array>
          </mxGeometry>
        </mxCell>
        <mxCell id="h35wLK1LhefXW1c5MuRA-53" value="firstThird = new actualAmount" style="edgeLabel;html=1;align=center;verticalAlign=middle;resizable=0;points=[];" vertex="1" connectable="0" parent="h35wLK1LhefXW1c5MuRA-52">
          <mxGeometry x="0.0212" y="1" relative="1" as="geometry">
            <mxPoint as="offset" />
          </mxGeometry>
        </mxCell>
        <mxCell id="h35wLK1LhefXW1c5MuRA-46" value="&lt;font style=&quot;font-size: 14px;&quot;&gt;&lt;b&gt;else if&lt;/b&gt;&lt;/font&gt;" style="rounded=0;whiteSpace=wrap;html=1;" vertex="1" parent="1">
          <mxGeometry x="340.61" y="1330" width="138.75" height="31" as="geometry" />
        </mxCell>
        <mxCell id="h35wLK1LhefXW1c5MuRA-47" value="&lt;font style=&quot;font-size: 14px;&quot;&gt;&lt;b&gt;else&lt;/b&gt;&lt;/font&gt;" style="rounded=0;whiteSpace=wrap;html=1;" vertex="1" parent="1">
          <mxGeometry x="340.61" y="1440" width="138.75" height="31" as="geometry" />
        </mxCell>
        <mxCell id="h35wLK1LhefXW1c5MuRA-48" value="&lt;font style=&quot;font-size: 12px;&quot;&gt;firstThird - secondThird = 1&lt;/font&gt;" style="rounded=0;whiteSpace=wrap;html=1;" vertex="1" parent="1">
          <mxGeometry x="320.94" y="1361" width="179.39" height="29" as="geometry" />
        </mxCell>
        <mxCell id="h35wLK1LhefXW1c5MuRA-49" value="&lt;font style=&quot;font-size: 12px;&quot;&gt;throw exception&lt;/font&gt;" style="rounded=0;whiteSpace=wrap;html=1;" vertex="1" parent="1">
          <mxGeometry x="320.61" y="1471" width="179.39" height="29" as="geometry" />
        </mxCell>
        <mxCell id="h35wLK1LhefXW1c5MuRA-50" value="" style="endArrow=classic;html=1;rounded=0;" edge="1" parent="1">
          <mxGeometry width="50" height="50" relative="1" as="geometry">
            <mxPoint x="410.35" y="1280" as="sourcePoint" />
            <mxPoint x="410.35" y="1330" as="targetPoint" />
            <Array as="points">
              <mxPoint x="410.28" y="1312" />
            </Array>
          </mxGeometry>
        </mxCell>
        <mxCell id="h35wLK1LhefXW1c5MuRA-51" value="" style="endArrow=classic;html=1;rounded=0;" edge="1" parent="1">
          <mxGeometry width="50" height="50" relative="1" as="geometry">
            <mxPoint x="410.36" y="1390" as="sourcePoint" />
            <mxPoint x="410.36" y="1440" as="targetPoint" />
            <Array as="points">
              <mxPoint x="410.28999999999996" y="1422" />
            </Array>
          </mxGeometry>
        </mxCell>
        <mxCell id="h35wLK1LhefXW1c5MuRA-56" value="" style="endArrow=classic;html=1;rounded=0;" edge="1" parent="1" source="h35wLK1LhefXW1c5MuRA-18" target="h35wLK1LhefXW1c5MuRA-55">
          <mxGeometry width="50" height="50" relative="1" as="geometry">
            <mxPoint x="410" y="-10" as="sourcePoint" />
            <mxPoint x="410" y="160" as="targetPoint" />
          </mxGeometry>
        </mxCell>
        <mxCell id="h35wLK1LhefXW1c5MuRA-55" value="&lt;font style=&quot;&quot;&gt;&lt;span style=&quot;font-weight: bold; font-size: 14px;&quot;&gt;while&lt;/span&gt;&lt;br&gt;&lt;font style=&quot;font-size: 12px;&quot;&gt;actualAmount &amp;gt; 1&lt;/font&gt;&lt;br&gt;&lt;/font&gt;" style="rounded=0;whiteSpace=wrap;html=1;" vertex="1" parent="1">
          <mxGeometry x="325.14" y="40" width="169.69" height="60" as="geometry" />
        </mxCell>
        <mxCell id="h35wLK1LhefXW1c5MuRA-57" value="nr of last coinAlgorithm.Coin &lt;br&gt;and &lt;br&gt;the count of&amp;nbsp;weighings" style="rounded=0;whiteSpace=wrap;html=1;" vertex="1" parent="1">
          <mxGeometry x="335.31" y="1591" width="150.63" height="60" as="geometry" />
        </mxCell>
        <mxCell id="h35wLK1LhefXW1c5MuRA-58" value="" style="endArrow=classic;html=1;rounded=0;" edge="1" parent="1" source="h35wLK1LhefXW1c5MuRA-49" target="h35wLK1LhefXW1c5MuRA-60">
          <mxGeometry width="50" height="50" relative="1" as="geometry">
            <mxPoint x="409.71000000000004" y="1500" as="sourcePoint" />
            <mxPoint x="409.71000000000004" y="1550" as="targetPoint" />
            <Array as="points">
              <mxPoint x="409.64" y="1532" />
            </Array>
          </mxGeometry>
        </mxCell>
        <mxCell id="h35wLK1LhefXW1c5MuRA-60" value="&lt;font style=&quot;font-size: 14px;&quot;&gt;&lt;b&gt;print&lt;/b&gt;&lt;/font&gt;" style="rounded=0;whiteSpace=wrap;html=1;" vertex="1" parent="1">
          <mxGeometry x="340.61" y="1560" width="138.75" height="31" as="geometry" />
        </mxCell>
        <mxCell id="h35wLK1LhefXW1c5MuRA-61" value="HINT: &lt;br&gt;have to handle the cases if there 2 Coins left, for greater or other Nr. than 19681" style="rounded=0;whiteSpace=wrap;html=1;" vertex="1" parent="1">
          <mxGeometry x="630" y="1460" width="190" height="80" as="geometry" />
        </mxCell>
      </root>
    </mxGraphModel>
  </diagram>
</mxfile>
